<?xml version="1.0" encoding="UTF-8" standalone="no"?>
<!-- Created with Inkscape (http://www.inkscape.org/) -->

<svg
   width="133.50278mm"
   height="28.955208mm"
   viewBox="0 0 133.50278 28.955208"
   version="1.1"
   id="svg5"
   inkscape:export-filename="logo.svg"
   inkscape:export-xdpi="194.82442"
   inkscape:export-ydpi="194.82442"
   inkscape:version="1.2.1 (9c6d41e410, 2022-07-14)"
   xmlns:inkscape="http://www.inkscape.org/namespaces/inkscape"
   xmlns:sodipodi="http://sodipodi.sourceforge.net/DTD/sodipodi-0.dtd"
   xmlns="http://www.w3.org/2000/svg"
   xmlns:svg="http://www.w3.org/2000/svg">
  <sodipodi:namedview
     id="namedview7"
     pagecolor="#ffffff"
     bordercolor="#000000"
     borderopacity="0.25"
     inkscape:showpageshadow="2"
     inkscape:pageopacity="0.0"
     inkscape:pagecheckerboard="0"
     inkscape:deskcolor="#d1d1d1"
     inkscape:document-units="mm"
     showgrid="false"
     inkscape:zoom="1.6819304"
     inkscape:cx="246.14574"
     inkscape:cy="-51.131723"
     inkscape:window-width="1920"
     inkscape:window-height="1009"
     inkscape:window-x="-8"
     inkscape:window-y="-8"
     inkscape:window-maximized="1"
     inkscape:current-layer="layer1" />
  <defs
     id="defs2" />
  <g
     inkscape:label="Livello 1"
     inkscape:groupmode="layer"
     id="layer1"
     transform="translate(-3.7031272,-2.3244912)">
    <g
       aria-label="Riccardo Calligaro"
       id="text113"
       style="font-size:14.1111px;font-family:Amsterdam;-inkscape-font-specification:'Amsterdam, Normal';stroke-width:0.264583">
      <path
         d="m 8.1303417,18.090959 q -0.027561,-0.06201 -0.2893878,0.37896 -0.2618271,0.440972 -0.6201167,1.150661 -0.3582897,0.702799 -0.7096892,1.426268 -0.3513994,0.73036 -0.5374344,1.212673 -0.186035,0.489203 -0.096463,0.489203 0.1240233,-0.110243 0.4547522,-0.75792 0.3376191,-0.640788 0.7372499,-1.4745 0.3996308,-0.833713 0.7096891,-1.529621 0.3100584,-0.695909 0.3513999,-0.895724 z m 0.9026143,0.847492 q -0.3445093,0.627007 -0.7027989,1.260904 -0.592556,1.074869 -1.1988923,2.149738 -0.7234695,1.274685 -1.5020605,2.549369 -0.220486,0.351399 -0.4960934,0.682128 -0.4340817,0.558105 -0.964626,0.558105 -0.5718854,0.02067 -0.4409719,-0.530544 0.1584743,-0.558105 0.3927406,-1.136881 1.4400488,-3.451983 3.1694854,-6.924636 0.5649952,-1.150661 1.1644414,-2.287542 0.2893878,-0.544324 0.8268223,-0.502983 0.4203013,0.01378 0.2204859,0.440972 -0.2273761,0.468532 -0.4754228,0.957735 -0.1722546,0.34451 -0.3445093,0.709689 -0.068902,0.124024 -0.082682,0.254937 -0.01378,0.04823 -0.027561,0.07579 -0.00689,0.02067 0.00689,0.02067 0.020671,0 0.034451,0 0.01378,0 0.027561,0 0.01378,0 0.041341,-0.0069 0.027561,-0.01378 0.048231,-0.02756 0.020671,-0.04134 0.055122,-0.07579 0.1171332,-0.137804 0.1929252,-0.254937 0.482313,-0.881944 0.9232849,-1.756997 0.3376184,-0.654568 0.6821284,-1.309136 0.978406,-1.894801 1.943032,-3.803382 0.599446,-1.2126727 1.164441,-2.4391257 0.234267,-0.5305443 0.496094,-1.074869 0.06201,-0.1102429 0.09646,-0.2135957 0.08957,-0.1998154 0.186035,-0.3927406 0.378961,-0.6821284 0.964626,-0.5787756 0.310059,0.062012 0.192926,0.4134111 -0.0689,0.1653645 -0.117134,0.330729 -0.172254,0.4409718 -0.365179,0.8957241 -0.895724,1.8810207 -1.86035,3.7758214 -0.943956,1.84657 -1.908582,3.69314 -0.420301,0.833712 -0.861273,1.667425 -0.02756,0.06201 -0.06201,0.124023 -0.144694,0.289388 -0.296278,0.578776 -0.110243,0.241156 -0.06201,0.323838 0.05512,0.08268 0.310058,0.05512 3.369301,-0.248047 7.007319,-1.653645 2.046385,-0.792371 4.003198,-2.046385 1.474499,-0.957736 2.446015,-1.936142 0.978407,-0.978406 1.515841,-1.8741305 0.544324,-0.9026023 0.76481,-1.6811933 Q 26.499577,6.6187994 25.89324,5.6472832 25.293794,4.6757671 23.922647,4.1383326 22.55839,3.6008981 20.636029,3.5802275 18.720557,3.5526668 16.467466,4.1038817 14.779371,4.5104026 13.043044,5.2407623 12.064638,5.6472832 11.100012,6.2536196 10.65904,6.529227 10.28008,6.8461755 9.9080096,7.1631241 9.701304,7.604096 9.625512,7.75568 9.4808181,7.8314721 9.3361242,7.9072641 9.1776499,7.9210445 9.0053953,7.9348249 8.8331406,7.9072641 8.5437528,7.8314721 8.6677762,7.4800726 8.8331406,7.1355633 9.1707597,6.7979442 9.6944138,6.2811803 10.314531,5.8884397 q 0.737249,-0.482313 1.48828,-0.8474928 0.75792,-0.3651798 1.522731,-0.6545676 3.128144,-1.1782218 6.063363,-1.4538292 1.240233,-0.1171332 2.576929,-0.034451 1.336696,0.082682 2.535589,0.4271915 1.198892,0.3376191 2.039495,0.9921867 0.840602,0.6476775 1.088649,1.6812053 0.254937,1.0266377 -0.296278,2.4666865 -0.38585,0.9232848 -1.040418,1.7914479 -0.647677,0.861274 -1.50206,1.681206 -1.584743,1.467609 -3.451983,2.514917 -1.763888,0.999077 -3.527775,1.674316 -1.763888,0.675238 -3.520885,1.102429 -1.646755,0.392741 -3.210827,0.544325 0,0 0,0 -0.08957,0 -0.186035,0.01378 -0.02067,0.01378 -0.05512,0.01378 -0.06201,0 -0.110243,0.02756 -0.04823,0.02067 -0.09646,0.08268 -0.09646,0.137803 0.03445,0.179145 0.103353,0.06201 0.213596,0.110242 0.08957,0.04134 0.179145,0.08957 1.915471,0.895724 3.576006,2.046385 1.667425,1.150661 3.141925,2.466686 0.199815,0.151585 0.316948,0.36518 0.03445,0.03445 0.01378,0.09646 -0.02067,0.0689 -0.05512,0.130913 -0.0689,0.110243 -0.158474,0.158475 -0.08268,0.05512 -0.186035,0.08268 -0.413411,0.09646 -0.613227,-0.117133 -0.633897,-0.468533 -1.295355,-0.923285 -0.702799,-0.530544 -1.426268,-1.047308 -1.047308,-0.771701 -2.197969,-1.433159 -1.143771,-0.661458 -2.3495537,-1.267794 -0.041341,-0.01378 -0.068902,-0.04134 -0.110243,-0.06201 -0.2342663,-0.103353 -0.1171332,-0.04823 -0.2480467,0 -0.1309135,0.04134 -0.2411565,0.234266 v 0 z"
         id="path339" />
      <path
         d="m 25.845009,17.40883 v 0 q 0.0689,0.04823 0,0.165365 -0.06201,0.110243 -0.172255,0.199815 -0.819932,0.695909 -1.632974,1.233343 -0.813042,0.537435 -1.591633,0.806152 -0.778591,0.261827 -1.550292,0.144694 -0.516764,-0.08957 -0.654567,-0.37896 -0.130914,-0.289388 0,-0.819932 0.199815,-0.833713 0.771701,-1.715657 0.365179,-0.509873 0.909504,-0.530544 0.475423,0 0.296278,0.427192 -0.165364,0.351399 -0.35829,0.695908 -0.02067,0.04823 -0.04134,0.08957 -0.509874,0.943955 -0.351399,1.295355 0.158474,0.344509 0.778591,0.179144 0.620116,-0.165364 1.529621,-0.75792 0.110243,-0.07579 0.289388,-0.206706 0.186035,-0.130913 0.38585,-0.261827 0.296278,-0.199815 0.489203,-0.337619 0.571886,-0.37896 0.902615,-0.227376 z m -3.500215,-1.908581 v 0 q -0.406521,-0.02756 -0.248046,-0.454753 0.117133,-0.330728 0.427191,-0.633897 0.268717,-0.261827 0.627007,-0.358289 0.36518,-0.09646 0.558105,0.05512 0.07579,0.05512 0.0689,0.158474 -0.0069,0.09646 -0.04823,0.158475 -0.571886,1.088649 -1.384928,1.074869 z"
         id="path341" />
      <path
         d="m 30.013571,17.698218 v 0 q 0.04134,-0.01378 0.06201,-0.02756 0.213596,-0.09646 0.468533,-0.199815 0.261827,-0.103353 0.420301,-0.09646 0.165365,0.0069 0.08957,0.220486 -0.179145,0.316949 -1.026638,0.675238 -0.840603,0.3514 -1.977483,0.675239 -1.136881,0.316948 -2.135958,0.509873 -0.999077,0.186035 -1.440049,0.165365 -0.489203,-0.05512 -0.571885,-0.37207 -0.07579,-0.323839 0.254937,-0.854383 0.38585,-0.571886 1.11621,-1.164442 0.730359,-0.592556 1.612303,-0.930175 0.881944,-0.344509 1.667425,-0.192925 0.130914,0.01378 0.172255,0.103353 0.02756,0.03445 0.03445,0.09646 0.01378,0.05512 -0.03445,0.117134 -0.110243,0.186035 -0.3514,0.241156 -0.234266,0.04823 -0.434081,0.04823 -0.04134,0 -0.09646,0.01378 -0.585666,0.07579 -1.391817,0.633897 -0.806152,0.551215 -1.198893,1.198892 -0.137803,0.275608 0.406521,0.261827 0.551215,-0.01378 1.419378,-0.220486 0.868164,-0.206705 1.681206,-0.454752 0.819932,-0.248047 1.254015,-0.447862 z"
         id="path343" />
      <path
         d="m 35.470598,17.698218 v 0 q 0.04134,-0.01378 0.06201,-0.02756 0.213595,-0.09646 0.468532,-0.199815 0.261827,-0.103353 0.420302,-0.09646 0.165364,0.0069 0.08957,0.220486 -0.179145,0.316949 -1.026638,0.675238 -0.840602,0.3514 -1.977483,0.675239 -1.136881,0.316948 -2.135958,0.509873 -0.999076,0.186035 -1.440048,0.165365 -0.489203,-0.05512 -0.571886,-0.37207 -0.07579,-0.323839 0.254937,-0.854383 0.385851,-0.571886 1.11621,-1.164442 0.73036,-0.592556 1.612304,-0.930175 0.881943,-0.344509 1.667425,-0.192925 0.130913,0.01378 0.172254,0.103353 0.02756,0.03445 0.03445,0.09646 0.01378,0.05512 -0.03445,0.117134 -0.110243,0.186035 -0.351399,0.241156 -0.234267,0.04823 -0.434082,0.04823 -0.04134,0 -0.09646,0.01378 -0.585665,0.07579 -1.391817,0.633897 -0.806152,0.551215 -1.198892,1.198892 -0.137804,0.275608 0.406521,0.261827 0.551214,-0.01378 1.419378,-0.220486 0.868163,-0.206705 1.681205,-0.454752 0.819932,-0.248047 1.254015,-0.447862 z"
         id="path345" />
      <path
         d="m 42.284992,17.39505 v 0 q 0.0689,0.01378 0.08268,0.04823 0.01378,0.02756 0,0.117133 -0.02067,0.08957 -0.172254,0.213596 -0.151585,0.124023 -0.268718,0.199815 -0.833712,0.530545 -1.639864,0.633897 -0.468533,0.06201 -0.888834,0.03445 -0.413411,-0.03445 -0.74414,-0.213595 -0.227376,-0.151584 -0.613226,0.08957 -0.792372,0.496093 -1.619194,0.950846 -0.420301,0.227376 -0.833712,0.37896 -0.406521,0.151584 -0.813042,0.172254 -1.136881,-0.02067 -0.337619,-1.1231 0.04134,-0.04823 0.07579,-0.07579 0.785481,-0.895724 1.694985,-1.612303 0.916395,-0.72347 1.991264,-1.205783 0.716579,-0.323838 1.316025,-0.248046 0.144694,0.03445 0.248047,0.124023 0.144694,0.08957 0.0069,0.289388 -0.04823,0.06201 -0.117133,0.110243 -0.06201,0.04134 -0.130913,0.08268 -0.04823,0.03445 -0.103353,0.04823 -0.04823,0.01378 -0.09646,0.01378 -0.461642,0.01378 -0.916395,0.268717 -0.454752,0.248047 -0.888834,0.564995 -0.468532,0.337619 -0.937065,0.74414 -0.468532,0.406521 -0.916394,0.971516 0.785481,-0.351399 1.302245,-0.695908 0.117133,-0.07579 0.220486,-0.137804 0.09646,-0.06201 0.179144,-0.110243 0.447862,-0.282498 0.888834,-0.496094 0.489204,-0.213595 0.861274,-0.213595 0.37207,0 0.564995,0.303168 0.268717,0.427191 0.771701,0.337619 0.502983,-0.09646 1.005967,-0.323839 0.523654,-0.241156 0.826822,-0.241156 z"
         id="path347" />
      <path
         d="m 47.824701,17.608646 v 0 q 0.392741,-0.261828 0.558105,-0.206706 0.172255,0.05512 0.09646,0.289388 -0.0689,0.234266 -0.399631,0.523654 -0.668348,0.558105 -1.688096,1.205782 -1.012857,0.640788 -2.053275,1.123101 -1.040418,0.475422 -1.770778,0.516764 -1.474499,0.07579 -0.647677,-1.378038 0.110243,-0.192925 0.337619,-0.516764 0.227376,-0.316948 0.413411,-0.613226 0.192925,-0.296278 0.165365,-0.399631 -0.04823,-0.08957 -0.172255,-0.08957 -0.117133,0 -0.268717,0.02756 -0.172255,0.03445 -0.289388,0.01378 -0.668348,-0.07579 -0.36518,-0.72347 0.447862,-0.895724 1.205783,-1.715656 0.241156,-0.254937 0.585665,-0.337619 0.34451,-0.08268 0.523655,0.0689 0.110242,0.103353 0.0069,0.282498 -0.151584,0.248046 -0.337619,0.489203 -0.08268,0.103353 -0.158475,0.213595 -0.454752,0.633898 -0.330729,0.661458 0.124024,0.02067 0.764811,-0.344509 0.461642,-0.241156 0.847493,-0.199815 0.516764,0.04823 0.130913,0.606336 -0.282497,0.37896 -0.578775,0.771701 -0.620117,0.806151 -1.150661,1.626084 -0.323839,0.558105 -0.130914,0.654567 0.192925,0.08957 0.702799,-0.117133 0.509874,-0.206706 1.129991,-0.551215 0.620116,-0.351399 1.12999,-0.682128 0.516764,-0.337619 0.716579,-0.489203 0.103353,-0.07579 0.296278,-0.206706 0.192926,-0.137804 0.406521,-0.275607 0.227376,-0.151584 0.323839,-0.227376 z"
         id="path349" />
      <path
         d="m 58.228879,17.39505 v 0 q 0.206706,0.04823 0.08268,0.268717 -0.124023,0.213596 -0.37207,0.427192 -0.640787,0.544324 -1.426268,0.964626 -0.778591,0.413411 -1.4745,0.585665 -0.689018,0.165365 -1.095539,-0.06201 -0.406521,-0.227377 -0.310059,-0.971517 0.07579,-0.668348 0.399631,-1.378037 0.09646,-0.241156 0.578776,-1.205782 0.489203,-0.964626 1.012857,-2.025715 0.530544,-1.061088 0.799262,-1.591633 0.124023,-0.241156 0.130913,-0.254937 -1.11621,1.426269 -2.432235,2.95589 -1.309136,1.529621 -1.798339,2.046385 -0.923285,0.950846 -1.929252,1.86035 -0.682128,0.592556 -1.453829,1.061089 -0.620117,0.37896 -1.254014,0.454752 -0.627007,0.07579 -1.026637,-0.151584 -0.399631,-0.227376 -0.275608,-0.785481 0.158474,-0.654568 0.564995,-1.267794 0.406521,-0.613227 1.10243,-1.157551 0.778591,-0.592556 1.48139,-0.771701 0.709689,-0.186035 1.343586,-0.01378 0.199816,0.05512 0.37896,0.151585 0.08957,0.04134 0.179145,0.08957 0.599446,-0.454752 1.715656,-1.798338 1.123101,-1.343587 2.19797,-2.749185 1.081759,-1.412488 1.543401,-2.046385 1.398708,-1.9085811 2.638941,-3.7896018 0.819932,-1.2126727 1.674315,-2.4391257 0.289388,-0.3996308 0.71658,-0.5167639 0.427191,-0.1240234 0.620116,0.1171331 0.08957,0.1240234 0,0.3031682 -1.178221,2.2186398 -2.473576,4.4579501 -0.502984,0.9095045 -0.992187,1.7776679 -0.964626,1.7087661 -1.87413,3.4244221 -0.909505,1.708766 -1.708766,3.424422 -0.02756,0.06201 -0.0689,0.137804 -0.179145,0.344509 -0.35829,0.826822 -0.179145,0.475423 -0.165364,0.813042 0.02067,0.330729 0.496093,0.220486 0.37207,-0.103353 0.819932,-0.344509 0.454752,-0.241157 0.888834,-0.502984 0.399631,-0.241156 0.695909,-0.39963 0.296278,-0.158475 0.427191,-0.144694 z m -9.701381,1.970593 v 0 q 0.592556,-0.427192 1.11621,-0.909505 0.530544,-0.482313 1.10243,-1.074869 -0.254937,-0.165364 -0.537435,-0.254936 -0.282497,-0.09646 -0.647677,0.02756 -0.36518,0.117133 -0.861274,0.571886 -0.957735,0.895724 -1.102429,1.86724 -0.02067,0.213596 0.151584,0.192925 0.172254,-0.02756 0.399631,-0.172254 0.234266,-0.144694 0.37896,-0.248047 z"
         id="path351" />
      <path
         d="m 65.367112,17.257246 v 0 q 0.282498,-0.04134 0.310059,0.02067 0.03445,0.05512 -0.0689,0.192925 -0.137804,0.241156 -0.413411,0.427191 -0.275608,0.179145 -0.633897,0.316949 -0.847493,0.316948 -1.522731,0.37207 -0.675239,0.04823 -1.302245,-0.117133 -0.275608,-0.08957 -0.537435,-0.0069 -0.261827,0.08268 -0.702799,0.509873 -1.1231,1.08865 -2.418455,1.226453 -0.971516,0.08957 -1.192002,-0.344509 -0.213596,-0.440972 0.01378,-1.1231 0.220486,-0.702799 0.73036,-1.316026 0.509874,-0.613226 1.233343,-1.14377 0.544325,-0.378961 1.033528,-0.316949 0.241157,0 0.289388,0.179145 0.0069,0.124023 -0.08957,0.213596 -0.08957,0.08957 -0.213595,0.165364 0,0 0,0 -1.143771,0.778591 -1.639865,1.83968 -0.234266,0.496093 -0.172254,0.909504 0.0689,0.344509 0.558105,0.103353 0.482313,-0.275608 0.992187,-0.757921 0.509873,-0.482313 0.806151,-0.992186 0.303168,-0.509874 0.186035,-0.902615 -0.08957,-0.151584 -0.206705,-0.213595 -0.05512,-0.04134 -0.103353,-0.07579 -0.04134,-0.04134 -0.0069,-0.103353 0.165364,-0.3514 0.516764,-0.509874 0.351399,-0.158474 0.74414,-0.158474 0.399631,0 0.661458,0.158474 0.261827,0.158474 0.206705,0.461643 -0.08957,0.39274 -0.337619,0.792371 -0.186035,0.330729 0.01378,0.509874 0.413412,0.454752 1.254014,0.323838 0.35829,-0.06201 0.675238,-0.165364 0.316949,-0.110243 0.627007,-0.234266 0.399631,-0.165365 0.709689,-0.241157 z"
         id="path353" />
      <path
         d="m 89.351851,17.863582 v 0 q -0.275608,0.213596 -0.578776,0.413412 -0.165364,0.117133 -0.351399,0.241156 -2.838757,2.046385 -5.780866,3.906735 -2.666502,1.701876 -5.415686,3.052353 -1.446939,0.695908 -2.866317,1.171331 -1.412488,0.475423 -2.797415,0.689019 -1.384928,0.213595 -2.58382,0.07579 -1.750107,-0.254937 -2.246201,-1.267794 -0.502983,-1.005968 -0.09646,-2.494248 0.406521,-1.48139 1.398707,-3.155705 0.985297,-1.674315 2.21175,-3.252167 1.233343,-1.577853 2.377114,-2.776745 2.321993,-2.452906 4.912702,-4.6508754 2.59071,-2.1979693 5.470808,-4.1065507 0.413411,-0.2756074 0.406521,-0.3582896 0,-0.082682 -0.220486,-0.1446939 Q 83.074892,5.192531 82.957759,5.1442997 82.420324,4.9513745 81.924231,4.7377787 81.069848,4.3863793 80.201684,4.0832111 79.333521,3.7800429 78.389565,3.5871177 77.548963,3.4217533 76.584337,3.4975453 q -0.682129,0.027561 -1.433159,0.3789602 -0.509874,0.2273762 -0.950845,0.5443247 -0.434082,0.3169485 -0.73036,0.8199321 -0.289388,0.4685326 -0.833713,0.3582896 -0.365179,-0.055121 -0.151584,-0.482313 0.158475,-0.3031681 0.406521,-0.5512148 0.248047,-0.2549369 0.564996,-0.482313 1.157551,-0.8612732 2.404674,-1.1024297 1.536512,-0.3031682 2.845647,-0.110243 0.957736,0.1515841 1.805229,0.4271915 0.854383,0.2756075 1.681205,0.592556 0.07579,0.027561 0.144694,0.041341 0.248047,0.110243 0.502983,0.1998154 0.647678,0.2135958 1.240234,0.482313 0.227376,0.110243 0.482313,0.055122 0.254937,-0.055122 0.578775,-0.2342663 1.316026,-0.7579205 2.652722,-1.2746844 1.736327,-0.7096891 3.36241,-0.8199321 0.502984,-0.041341 0.943956,0.027561 0.440972,0.068902 0.771701,0.2756074 0.530544,0.3651798 0.330729,0.9784064 -0.199816,0.6132265 -1.026638,1.2057824 -0.75792,0.516764 -1.557182,0.7579205 -0.985297,0.3376191 -1.894801,0.3927406 -0.916395,0.062012 -1.784558,0.041341 -0.868164,-0.020671 -1.639864,-0.1929252 -0.05512,-0.01378 -0.110243,-0.027561 -0.282498,-0.075792 -0.544325,-0.068902 -0.261827,0.00689 -0.661458,0.2687172 -3.417532,2.2393103 -6.538786,5.0229452 -3.121254,2.783635 -5.677513,5.794646 -0.916395,1.061089 -1.798338,2.363334 -0.881944,1.295355 -1.48139,2.5976 -0.606337,1.302245 -0.689019,2.432235 -0.08268,1.129991 0.592556,1.887911 0.585666,0.606337 1.639864,0.647678 1.584743,0.03445 3.369301,-0.509874 1.922362,-0.606336 3.837833,-1.591633 1.674316,-0.854383 3.293509,-1.832789 1.626084,-0.971516 3.245278,-2.018825 0.606336,-0.37896 2.046385,-1.288464 1.446939,-0.909505 2.61138,-1.605414 0.199816,-0.124023 0.385851,-0.248046 0.37207,-0.227376 0.633897,-0.35829 0.268717,-0.137804 0.440972,-0.110243 0.330728,0.03445 -0.544325,0.682128 z M 90.750559,3.0427931 v 0 q -1.226454,0.1653644 -2.487357,0.6821283 -1.260904,0.5098738 -2.604491,1.2677942 0.702799,0.2893878 1.605414,0.3651798 0.902614,0.075792 1.743217,-0.041341 0.76481,-0.1102429 1.557182,-0.4271915 Q 91.074397,4.6895474 91.522259,4.3450382 91.92878,3.9936387 92.004572,3.6766901 92.087255,3.3597416 91.790977,3.1943772 91.363785,2.967001 90.750559,3.0427931 Z"
         id="path355" />
      <path
         d="m 95.559906,17.39505 v 0 q 0.0689,0.01378 0.08268,0.04823 0.01378,0.02756 0,0.117133 -0.02067,0.08957 -0.172255,0.213596 -0.151584,0.124023 -0.268717,0.199815 -0.833712,0.530545 -1.639864,0.633897 -0.468533,0.06201 -0.888834,0.03445 -0.413411,-0.03445 -0.74414,-0.213595 -0.227376,-0.151584 -0.613227,0.08957 -0.792371,0.496093 -1.619193,0.950846 -0.420302,0.227376 -0.833713,0.37896 -0.406521,0.151584 -0.813042,0.172254 -1.13688,-0.02067 -0.337619,-1.1231 0.04134,-0.04823 0.07579,-0.07579 0.785482,-0.895724 1.694986,-1.612303 0.916395,-0.72347 1.991264,-1.205783 0.716579,-0.323838 1.316025,-0.248046 0.144694,0.03445 0.248047,0.124023 0.144694,0.08957 0.0069,0.289388 -0.04823,0.06201 -0.117133,0.110243 -0.06201,0.04134 -0.130914,0.08268 -0.04823,0.03445 -0.103352,0.04823 -0.04823,0.01378 -0.09646,0.01378 -0.461643,0.01378 -0.916395,0.268717 -0.454752,0.248047 -0.888834,0.564995 -0.468532,0.337619 -0.937065,0.74414 -0.468533,0.406521 -0.916395,0.971516 0.785482,-0.351399 1.302245,-0.695908 0.117134,-0.07579 0.220486,-0.137804 0.09646,-0.06201 0.179145,-0.110243 0.447862,-0.282498 0.888834,-0.496094 0.489203,-0.213595 0.861273,-0.213595 0.37207,0 0.564996,0.303168 0.268717,0.427191 0.7717,0.337619 0.502984,-0.09646 1.005967,-0.323839 0.523655,-0.241156 0.826823,-0.241156 z"
         id="path357" />
      <path
         d="m 97.943914,13.894835 v 0 q 0.434081,-0.502983 1.198892,-1.612303 0.771701,-1.11621 1.626084,-2.4804668 0.85438,-1.3642568 1.57096,-2.5976 0.72347,-1.2402334 1.07487,-1.9774833 0.35829,-0.74414 0.11024,-0.6270069 -0.7717,1.0473082 -1.30224,1.9430324 -0.26872,0.4685326 -0.84749,1.3918175 -0.9853,1.6054132 -2.06706,3.4175321 -1.081759,1.812119 -1.364256,2.542478 z m 5.436356,0.316949 v 0 q 0.40652,-0.454752 1.11621,-1.460719 0.71658,-1.012858 1.50206,-2.246201 0.79237,-1.2333431 1.45383,-2.3564434 0.66146,-1.1231002 0.97841,-1.7983384 0.32383,-0.6752382 0.0896,-0.5649952 -0.71658,0.9370652 -1.21267,1.7569973 -0.25494,0.4271915 -0.78549,1.2746843 -0.9095,1.4538294 -1.90858,3.1005834 -0.99218,1.639864 -1.23334,2.294432 z M 100.197,18.89711 q -0.571881,0.482313 -1.205778,0.923285 -1.157551,0.806152 -2.294432,1.185112 -0.468533,0.130914 -0.888834,0.130914 -0.413411,0 -0.771701,-0.103353 -0.351399,-0.08957 -0.489203,-0.337619 -0.137804,-0.254937 -0.158474,-0.585666 -0.02067,-1.09554 0.861273,-3.148815 0.888834,-2.053275 2.253091,-4.485511 1.371147,-2.432235 2.783638,-4.6577653 1.41248,-2.2324201 2.43223,-3.6862493 0.44786,-0.6063363 0.99908,-1.150661 0.59256,-0.5649952 1.19889,-0.5167639 0.59256,0 0.53744,0.558105 -0.12403,0.7165793 -0.46854,1.4607194 -0.77859,1.7569973 -1.88102,3.5002143 -1.06109,1.6812053 -2.12906,3.1488148 -1.067983,1.460719 -2.129072,2.866317 -1.309135,1.715656 -2.659612,3.596677 -0.08957,0.192925 -0.137803,0.344509 -0.220486,0.530545 -0.323839,0.916395 -0.09646,0.385851 -0.06201,0.950846 0.03445,0.530544 0.475423,0.564995 0.447862,0.02756 1.081759,-0.261827 0.633897,-0.289388 1.247124,-0.689019 0.613226,-0.406521 1.005967,-0.73725 0.110243,-0.08957 0.399631,-0.330728 0.296272,-0.248047 0.530542,-0.578776 0.23427,-0.330729 0.42719,-0.771701 0.78548,-1.86724 2.0395,-4.0721 1.25401,-2.204859 2.55626,-4.2236833 1.30224,-2.0257146 2.25998,-3.3486303 0.4203,-0.5443246 0.95084,-1.0473082 0.55811,-0.4960933 1.17822,-0.4685326 0.59256,0 0.55811,0.5029836 -0.0896,0.6476774 -0.40652,1.3298058 -0.68902,1.5916329 -1.70877,3.1832658 -0.99219,1.5158412 -1.98437,2.8456462 -0.99219,1.322916 -1.99127,2.5976 -1.23334,1.564073 -1.90169,2.508028 -0.66834,0.937065 -0.71658,1.088649 -0.19292,0.468533 -0.2756,0.826823 -0.0827,0.351399 -0.0207,0.854383 0.0551,0.482313 0.50987,0.509873 0.45475,0.02067 1.06798,-0.234266 0.61322,-0.261827 1.20578,-0.627007 0.59945,-0.36518 0.97841,-0.668348 0.10335,-0.07579 0.37896,-0.289388 0.2756,-0.220486 0.55121,-0.440972 0.2825,-0.220485 0.39963,-0.296278 0.43408,-0.261827 0.55811,-0.09646 0.12402,0.158474 -0.31695,0.592556 -0.88883,0.833712 -2.00504,1.564072 -1.10932,0.73036 -2.23242,1.074869 -0.46854,0.124023 -0.88884,0.124023 -0.41341,0 -0.77859,-0.08957 -0.34451,-0.09646 -0.50298,-0.310058 -0.15159,-0.220486 -0.17915,-0.544325 -0.0207,-0.406521 0.0827,-0.950846 z"
         id="path359" />
      <path
         d="m 111.46246,17.40883 v 0 q 0.0689,0.04823 0,0.165365 -0.062,0.110243 -0.17226,0.199815 -0.81993,0.695909 -1.63297,1.233343 -0.81304,0.537435 -1.59164,0.806152 -0.77859,0.261827 -1.55029,0.144694 -0.51676,-0.08957 -0.65456,-0.37896 -0.13092,-0.289388 0,-0.819932 0.19981,-0.833713 0.7717,-1.715657 0.36518,-0.509873 0.9095,-0.530544 0.47542,0 0.29628,0.427192 -0.16537,0.351399 -0.35829,0.695908 -0.0207,0.04823 -0.0413,0.08957 -0.50988,0.943955 -0.3514,1.295355 0.15847,0.344509 0.77859,0.179144 0.62012,-0.165364 1.52962,-0.75792 0.11024,-0.07579 0.28939,-0.206706 0.18603,-0.130913 0.38585,-0.261827 0.29628,-0.199815 0.4892,-0.337619 0.57189,-0.37896 0.90262,-0.227376 z m -3.50022,-1.908581 v 0 q -0.40652,-0.02756 -0.24804,-0.454753 0.11713,-0.330728 0.42719,-0.633897 0.26871,-0.261827 0.627,-0.358289 0.36518,-0.09646 0.55811,0.05512 0.0758,0.05512 0.0689,0.158474 -0.007,0.09646 -0.0482,0.158475 -0.57189,1.088649 -1.38493,1.074869 z"
         id="path361" />
      <path
         d="m 118.1666,17.333038 v 0 q 0.11024,0.04823 0.0551,0.192925 -0.0551,0.144694 -0.21359,0.261827 -0.1447,0.110243 -0.38585,0.268718 -0.23427,0.158474 -0.46854,0.310058 -0.17225,0.103353 -0.28938,0.179145 -2.11529,1.398707 -4.16168,2.914548 -0.26182,0.179145 -0.47542,0.378961 -0.2067,0.206705 -0.36518,0.468532 -0.66835,1.088649 -1.78456,2.694063 -1.10932,1.612303 -2.39089,3.155705 -1.28157,1.543401 -2.39779,2.439125 -0.80615,0.620117 -1.63297,0.682129 -1.26779,0.03445 -0.81304,-1.212673 0.49609,-1.212673 1.64675,-2.563149 1.14377,-1.343586 2.54248,-2.5976 1.39182,-1.247123 2.59071,-2.115287 0.62012,-0.496093 1.5434,-1.701876 0.92329,-1.205782 1.46072,-2.101506 0.26183,-0.454753 0.19293,-0.496094 -0.0689,-0.04823 -0.38585,0.103353 -0.27561,0.117133 -0.64079,0.234266 -0.35829,0.110243 -0.7717,0.09646 -0.54433,-0.06201 -0.62012,-0.440972 -0.0689,-0.37896 0.17915,-0.881944 0.25493,-0.509873 0.63389,-0.937065 0.41342,-0.420301 0.92329,-0.785481 0.50987,-0.36518 1.04042,-0.654568 0.85438,-0.454752 1.42627,-0.179145 0.0758,0.04823 0.10335,0.130914 0.0276,0.08268 -0.0413,0.199815 -0.0758,0.110243 -0.17226,0.165365 -0.0896,0.04823 -0.18603,0.06201 -0.72347,0.227377 -1.37804,0.778591 -0.64768,0.544325 -0.99908,1.061089 -0.3514,0.509874 -0.17225,0.633897 0.15158,0.02756 0.50987,-0.158474 0.36518,-0.192925 0.73725,-0.447862 0.37207,-0.254937 0.54433,-0.37896 0.5581,-0.454753 1.12999,-0.440972 0.64079,0.01378 0.32384,0.640787 -0.23427,0.434082 -0.565,0.937065 -0.39963,0.606337 -0.64079,1.074869 -0.17225,0.440972 0.34451,0.192925 0.52366,-0.254936 1.54341,-0.888834 0.57188,-0.351399 1.06797,-0.661457 0.4961,-0.310059 0.84061,-0.489204 0.34451,-0.186035 0.57188,-0.124023 z m -12.55392,11.795998 v 0 q 0.79238,-0.909505 2.09462,-2.58382 1.29536,-1.674315 1.85346,-2.61827 -0.44097,0.39274 -0.65457,0.544324 -0.10335,0.07579 -0.15847,0.137804 -1.20578,1.047308 -2.3151,2.156628 -0.7786,0.785481 -1.35048,1.529621 -0.57878,0.74414 -1.01286,1.619194 -0.17914,0.3514 -0.17914,0.509874 -0.007,0.158474 0.26182,-0.02067 0.80616,-0.564995 1.46072,-1.274684 z"
         id="path363" />
      <path
         d="m 123.72009,17.39505 v 0 q 0.0689,0.01378 0.0827,0.04823 0.0138,0.02756 0,0.117133 -0.0207,0.08957 -0.17225,0.213596 -0.15158,0.124023 -0.26872,0.199815 -0.83371,0.530545 -1.63986,0.633897 -0.46853,0.06201 -0.88884,0.03445 -0.41341,-0.03445 -0.74414,-0.213595 -0.22737,-0.151584 -0.61322,0.08957 -0.79237,0.496093 -1.6192,0.950846 -0.4203,0.227376 -0.83371,0.37896 -0.40652,0.151584 -0.81304,0.172254 -1.13688,-0.02067 -0.33762,-1.1231 0.0413,-0.04823 0.0758,-0.07579 0.78548,-0.895724 1.69499,-1.612303 0.91639,-0.72347 1.99126,-1.205783 0.71658,-0.323838 1.31603,-0.248046 0.14469,0.03445 0.24804,0.124023 0.1447,0.08957 0.007,0.289388 -0.0482,0.06201 -0.11713,0.110243 -0.062,0.04134 -0.13091,0.08268 -0.0482,0.03445 -0.10335,0.04823 -0.0482,0.01378 -0.0965,0.01378 -0.46164,0.01378 -0.91639,0.268717 -0.45475,0.248047 -0.88884,0.564995 -0.46853,0.337619 -0.93706,0.74414 -0.46853,0.406521 -0.9164,0.971516 0.78549,-0.351399 1.30225,-0.695908 0.11713,-0.07579 0.22049,-0.137804 0.0965,-0.06201 0.17914,-0.110243 0.44786,-0.282498 0.88883,-0.496094 0.48921,-0.213595 0.86128,-0.213595 0.37207,0 0.56499,0.303168 0.26872,0.427191 0.7717,0.337619 0.50299,-0.09646 1.00597,-0.323839 0.52365,-0.241156 0.82682,-0.241156 z"
         id="path365" />
      <path
         d="m 129.25981,17.608646 v 0 q 0.39274,-0.261828 0.5581,-0.206706 0.17226,0.05512 0.0965,0.289388 -0.0689,0.234266 -0.39963,0.523654 -0.66835,0.558105 -1.68809,1.205782 -1.01286,0.640788 -2.05328,1.123101 -1.04042,0.475422 -1.77078,0.516764 -1.4745,0.07579 -0.64767,-1.378038 0.11024,-0.192925 0.33762,-0.516764 0.22737,-0.316948 0.41341,-0.613226 0.19292,-0.296278 0.16536,-0.399631 -0.0482,-0.08957 -0.17225,-0.08957 -0.11714,0 -0.26872,0.02756 -0.17226,0.03445 -0.28939,0.01378 -0.66835,-0.07579 -0.36518,-0.72347 0.44786,-0.895724 1.20578,-1.715656 0.24116,-0.254937 0.58567,-0.337619 0.34451,-0.08268 0.52365,0.0689 0.11025,0.103353 0.007,0.282498 -0.15158,0.248046 -0.33762,0.489203 -0.0827,0.103353 -0.15847,0.213595 -0.45475,0.633898 -0.33073,0.661458 0.12403,0.02067 0.76481,-0.344509 0.46164,-0.241156 0.8475,-0.199815 0.51676,0.04823 0.13091,0.606336 -0.2825,0.37896 -0.57878,0.771701 -0.62011,0.806151 -1.15066,1.626084 -0.32384,0.558105 -0.13091,0.654567 0.19292,0.08957 0.7028,-0.117133 0.50987,-0.206706 1.12999,-0.551215 0.62011,-0.351399 1.12999,-0.682128 0.51676,-0.337619 0.71658,-0.489203 0.10335,-0.07579 0.29628,-0.206706 0.19292,-0.137804 0.40652,-0.275607 0.22737,-0.151584 0.32384,-0.227376 z"
         id="path367" />
      <path
         d="m 136.88724,17.257246 v 0 q 0.2825,-0.04134 0.31006,0.02067 0.0344,0.05512 -0.0689,0.192925 -0.13781,0.241156 -0.41342,0.427191 -0.2756,0.179145 -0.63389,0.316949 -0.8475,0.316948 -1.52273,0.37207 -0.67524,0.04823 -1.30225,-0.117133 -0.27561,-0.08957 -0.53743,-0.0069 -0.26183,0.08268 -0.7028,0.509873 -1.1231,1.08865 -2.41846,1.226453 -0.97151,0.08957 -1.192,-0.344509 -0.2136,-0.440972 0.0138,-1.1231 0.22049,-0.702799 0.73036,-1.316026 0.50987,-0.613226 1.23334,-1.14377 0.54433,-0.378961 1.03353,-0.316949 0.24116,0 0.28939,0.179145 0.007,0.124023 -0.0896,0.213596 -0.0896,0.08957 -0.2136,0.165364 0,0 0,0 -1.14377,0.778591 -1.63986,1.83968 -0.23427,0.496093 -0.17226,0.909504 0.0689,0.344509 0.55811,0.103353 0.48231,-0.275608 0.99218,-0.757921 0.50988,-0.482313 0.80616,-0.992186 0.30316,-0.509874 0.18603,-0.902615 -0.0896,-0.151584 -0.2067,-0.213595 -0.0551,-0.04134 -0.10336,-0.07579 -0.0413,-0.04134 -0.007,-0.103353 0.16537,-0.3514 0.51677,-0.509874 0.3514,-0.158474 0.74414,-0.158474 0.39963,0 0.66145,0.158474 0.26183,0.158474 0.20671,0.461643 -0.0896,0.39274 -0.33762,0.792371 -0.18603,0.330729 0.0138,0.509874 0.41341,0.454752 1.25401,0.323838 0.35829,-0.06201 0.67524,-0.165364 0.31695,-0.110243 0.62701,-0.234266 0.39963,-0.165365 0.70969,-0.241157 z"
         id="path369" />
    </g>
  </g>
</svg>
